<svg xmlns="http://www.w3.org/2000/svg" width="800" height="600" viewBox="0 0 800 600">
  <rect width="800" height="600" fill="#f5f5f5"/>
  <g transform="translate(250,150)">
    <rect x="0" y="0" width="300" height="500" rx="20" fill="#ffffff" stroke="#333" stroke-width="2"/>
    <rect x="20" y="40" width="260" height="80" rx="10" fill="#2196F3"/>
    <text x="40" y="90" fill="white" font-family="Arial" font-size="24">Shop Now</text>
    <g transform="translate(20,140)">
      <rect x="0" y="0" width="125" height="160" rx="10" fill="#fff" stroke="#ddd"/>
      <rect x="135" y="0" width="125" height="160" rx="10" fill="#fff" stroke="#ddd"/>
      <rect x="10" y="10" width="105" height="90" rx="5" fill="#e0e0e0"/>
      <rect x="145" y="10" width="105" height="90" rx="5" fill="#e0e0e0"/>
      <text x="10" y="120" font-family="Arial" font-size="14" fill="#333">Product 1</text>
      <text x="145" y="120" font-family="Arial" font-size="14" fill="#333">Product 2</text>
      <text x="10" y="140" font-family="Arial" font-size="16" fill="#E91E63">$99.99</text>
      <text x="145" y="140" font-family="Arial" font-size="16" fill="#E91E63">$149.99</text>
    </g>
    <rect x="20" y="320" width="260" height="60" rx="10" fill="#4CAF50"/>
    <text x="100" y="355" fill="white" font-family="Arial" font-size="20">Cart (2)</text>
    <rect x="20" y="400" width="260" height="80" rx="10" fill="#FF9800"/>
    <text x="85" y="445" fill="white" font-family="Arial" font-size="20">Checkout</text>
  </g>
</svg>