<svg xmlns="http://www.w3.org/2000/svg" width="800" height="600" viewBox="0 0 800 600">
  <rect width="800" height="600" fill="#f5f5f5"/>
  <g transform="translate(250,150)">
    <rect x="0" y="0" width="300" height="500" rx="20" fill="#ffffff" stroke="#333" stroke-width="2"/>
    <rect x="20" y="40" width="260" height="100" rx="10" fill="#673AB7"/>
    <text x="40" y="90" fill="white" font-family="Arial" font-size="24">Smart Home</text>
    <g transform="translate(20,160)">
      <rect x="0" y="0" width="125" height="100" rx="10" fill="#FF5722"/>
      <text x="20" y="45" fill="white" font-family="Arial" font-size="16">Living Room</text>
      <text x="20" y="70" fill="white" font-family="Arial" font-size="14">4 Devices</text>
      <rect x="135" y="0" width="125" height="100" rx="10" fill="#009688"/>
      <text x="155" y="45" fill="white" font-family="Arial" font-size="16">Kitchen</text>
      <text x="155" y="70" fill="white" font-family="Arial" font-size="14">3 Devices</text>
    </g>
    <g transform="translate(20,280)">
      <rect x="0" y="0" width="260" height="80" rx="10" fill="#FFC107"/>
      <text x="20" y="35" fill="white" font-family="Arial" font-size="16">Temperature</text>
      <text x="20" y="60" fill="white" font-family="Arial" font-size="20">23°C</text>
      <circle cx="220" cy="40" r="25" fill="white" fill-opacity="0.3"/>
    </g>
    <g transform="translate(20,380)">
      <rect x="0" y="0" width="125" height="100" rx="10" fill="#3F51B5"/>
      <text x="20" y="45" fill="white" font-family="Arial" font-size="16">Lights</text>
      <text x="20" y="70" fill="white" font-family="Arial" font-size="14">On</text>
      <rect x="135" y="0" width="125" height="100" rx="10" fill="#E91E63"/>
      <text x="155" y="45" fill="white" font-family="Arial" font-size="16">Security</text>
      <text x="155" y="70" fill="white" font-family="Arial" font-size="14">Armed</text>
    </g>
  </g>
</svg>